<svg width="274" height="134" viewBox="0 0 274 134" fill="none" xmlns="http://www.w3.org/2000/svg">
<path fill-rule="evenodd" clip-rule="evenodd" d="M211.332 29.6843C215.555 20.5558 222.088 6.45593 222.385 5.99401C223.441 4.38826 225.091 2.71662 228.203 1.5618C230.524 0.69294 234.263 0 240.345 0C247.637 0 251.882 1.0669 254.357 2.26571C259.768 4.8833 260.758 8.62262 260.769 11.9331L260.78 15.2216L262.584 15.1887C265.399 15.1887 267.698 15.6726 269.645 17.2343C270.921 18.2462 272.262 19.8079 273.087 22.7115C273.604 24.5372 274 27.4847 274 32.225C274 36.8883 273.604 39.8908 273.076 41.8595C272.834 42.7394 272.548 43.5092 272.229 44.1801C272.196 44.818 271.998 45.4558 271.624 46.0168L260.791 62.4923V72.0607C263.508 72.0827 265.74 72.5666 267.643 74.0954C268.919 75.1182 270.261 76.669 271.086 79.5725C271.602 81.3982 271.998 84.3458 271.998 89.086C271.998 94.7941 271.371 98.1266 270.624 100.106C269.854 102.141 253.609 129.241 253.268 129.538C253.268 129.538 248.605 133.464 242.71 133.464H220.351C217.128 133.464 213.169 132.408 210.485 129.439C208.692 127.459 207.383 124.611 207.383 120.497V108.058C201.796 116.384 193.185 129.802 193.141 129.857C193.141 129.857 191.194 133.563 180.592 133.563H110.401C106.672 133.563 103.703 132.276 101.613 130.154C100.073 128.592 98.9956 126.535 98.5556 124.083C96.367 127.448 94.8382 129.835 94.8272 129.857C94.8272 129.857 92.8695 133.563 82.2671 133.563H12.0762C8.34779 133.563 5.37814 132.276 3.29947 130.154C1.24279 128.064 -1.52588e-05 125.105 -1.52588e-05 121.465C-1.52588e-05 108.047 -1.52588e-05 64.3839 -1.52588e-05 64.4719C-1.52588e-05 64.4719 0.0110475 60.4355 2.54065 56.3552C4.69631 52.8577 21.4137 23.8992 22.7114 21.9855C25.34 18.1251 31.6861 16.0905 37.3282 16.0905C42.9703 16.0905 82.5751 16.2885 91.3187 16.2885C100.414 16.2885 105.715 19.28 108.982 22.7445C112.193 26.165 113.48 30.3882 113.986 33.9076C117.528 27.8476 120.508 22.7554 121.025 21.9855C123.654 18.1251 130.011 16.0905 135.653 16.0905C141.295 16.0905 180.889 16.2885 189.643 16.2885C198.739 16.2885 204.04 19.28 207.307 22.7445C209.297 24.8672 210.551 27.2977 211.332 29.6843ZM84.4338 72.1487C84.4338 71.6427 84.2358 71.1589 83.8838 70.8069C83.5319 70.455 83.048 70.257 82.5531 70.257C73.9194 70.279 38.681 70.367 38.681 70.367C32.082 70.367 25.318 67.1226 25.318 60.5676C25.318 58.3459 25.1422 38.703 25.1422 38.0211C25.1422 27.0998 31.5541 22.5244 38.868 22.5244H92.6715C108.608 22.5244 108.575 36.4372 108.575 40.6386C108.575 43.3661 109.103 47.0286 98.6216 47.0286C88.1402 47.0286 87.0844 45.4668 87.0844 44.224C87.0844 42.9812 86.2375 42.2883 85.3796 42.2883C84.5217 42.2883 59.1488 42.3213 51.1311 42.3213C50.5372 42.3213 49.9762 42.5633 49.5473 42.9812C49.1293 43.3992 48.8984 43.9711 48.8984 44.565C48.8984 45.7309 48.8984 48.0295 48.8984 49.1953C48.8984 49.7892 49.1293 50.3501 49.5473 50.7681C49.9762 51.197 50.5372 51.428 51.1311 51.428C60.7106 51.428 97.7526 51.428 97.7526 51.428C104.341 51.428 108.575 54.6725 108.575 61.2275V90.8788C108.575 96.6969 104.066 100.139 96.7519 100.139H40.0227C29.3434 100.139 25.318 93.8923 25.318 86.0945V79.4075C25.318 77.9777 26.5499 74.7993 37.0312 74.7993C47.5126 74.7993 48.0075 76.218 48.5904 77.3728C49.1623 78.5057 50.0423 79.4075 51.1311 79.4075C52.2199 79.4075 75.1623 79.4185 82.5531 79.4185C83.048 79.4185 83.5319 79.2205 83.8838 78.8686C84.2358 78.5167 84.4338 78.0328 84.4338 77.5268C84.4338 75.9541 84.4338 73.7214 84.4338 72.1487ZM182.758 72.1487C182.758 71.6427 182.56 71.1589 182.208 70.8069C181.845 70.455 181.373 70.257 180.867 70.257C172.233 70.279 136.995 70.367 136.995 70.367C130.407 70.367 123.643 67.1226 123.643 60.5676C123.643 58.3459 123.467 38.703 123.467 38.0211C123.467 27.0998 129.879 22.5244 137.193 22.5244H190.985C206.922 22.5244 206.9 36.4372 206.9 40.6386C206.9 43.3661 207.428 47.0286 196.935 47.0286C186.454 47.0286 185.398 45.4668 185.398 44.224C185.398 42.9812 184.562 42.2883 183.704 42.2883C182.846 42.2883 157.473 42.3213 149.456 42.3213C148.862 42.3213 148.29 42.5633 147.872 42.9812C147.454 43.3992 147.212 43.9711 147.212 44.565C147.212 45.7309 147.212 48.0295 147.212 49.1953C147.212 49.7892 147.454 50.3501 147.872 50.7681C148.29 51.197 148.862 51.428 149.456 51.428C159.035 51.428 196.077 51.428 196.077 51.428C202.665 51.428 206.9 54.6725 206.9 61.2275V90.8788C206.9 96.6969 202.379 100.139 195.065 100.139H138.336C127.668 100.139 123.643 93.8923 123.643 86.0945V79.4075C123.643 77.9777 124.874 74.7993 135.356 74.7993C145.837 74.7993 146.332 76.218 146.904 77.3728C147.476 78.5057 148.367 79.4075 149.456 79.4075C150.544 79.4075 173.487 79.4185 180.867 79.4185C181.373 79.4185 181.856 79.2205 182.208 78.8686C182.56 78.5167 182.758 78.0328 182.758 77.5268C182.758 75.9541 182.758 73.7214 182.758 72.1487ZM229.666 22.3486L229.523 11.9881C229.523 9.43655 229.699 7.0059 241.203 7.0059C252.553 7.0059 253.675 9.54657 253.675 11.8892L253.708 22.3486L262.573 22.1946C265.136 22.1946 266.917 21.6666 266.917 32.159C266.917 41.5405 265.344 42.6734 263.31 42.8163V42.8274H253.708V74.9753C253.708 79.1766 256.084 79.1986 256.084 79.1986L260.571 79.0666C263.123 79.0666 264.905 78.5278 264.905 89.0201C264.905 99.5015 262.958 99.6884 260.571 99.6884C260.571 99.6884 240.103 99.6884 235.594 99.6884C228.94 99.6884 229.666 94.6951 229.666 91.6486V42.8274L226.224 42.8382C223.672 42.8382 221.89 43.3662 221.89 32.8849C221.89 22.3925 223.837 22.2056 226.224 22.2056L229.666 22.3486Z" fill="white"/>
</svg>
