<svg width="416" height="320" viewBox="0 0 416 320" fill="none" xmlns="http://www.w3.org/2000/svg">
<path fill-rule="evenodd" clip-rule="evenodd" d="M109.967 253.528C110.26 253.106 110.291 252.55 110.045 252.071C109.8 251.611 109.319 251.324 108.796 251.324C97.7035 251.324 54.487 251.324 25.968 251.324C19.0773 251.324 12.4683 248.583 7.59791 243.714C2.7275 238.846 -0.00574114 232.233 9.05461e-06 225.333C0.02876 189.446 0.0805155 126.65 0.0996829 104.774C0.103516 99.6776 1.43954 94.6712 3.97538 90.2512C13.122 74.3097 36.2033 34.0833 48.2212 13.1373C52.8846 5.01034 61.5368 0 70.9058 0H339.392C345.04 0 350.246 3.06673 352.983 8.00806C355.722 12.9513 355.562 18.989 352.566 23.7808C342.601 39.7108 330.163 59.595 323.694 69.9376C322.814 71.3445 322.766 73.1175 323.571 74.5685C324.374 76.0194 325.902 76.9203 327.562 76.9203C341.901 76.9203 371.934 76.9203 392.976 76.9203C405.615 76.9203 415.862 87.1671 415.862 99.8061C415.862 130.934 415.862 186.095 415.862 215.481C415.862 228.399 412.586 241.127 406.341 252.435C398.473 266.696 385.706 286.898 377.654 301.485C371.353 312.908 359.341 320 346.298 320C293.139 320 155.416 320 94.3186 320C88.5435 320 83.2418 316.818 80.5373 311.701C77.8327 306.602 78.1682 300.43 81.4094 295.658C92.3942 279.442 105.583 260.006 109.967 253.528ZM148.802 241.414C143.533 241.414 138.591 243.963 135.555 248.276C127.181 260.16 110.065 284.445 101.451 296.654C100.444 298.092 100.318 299.951 101.123 301.504C101.926 303.056 103.527 304.034 105.275 304.034C143.847 304.034 293.49 304.034 340.473 304.034C349.135 304.034 357.133 299.395 361.452 291.882C367.6 281.206 378.162 265.642 384.495 254.64C386.064 251.918 386.061 248.544 384.481 245.823C382.904 243.082 379.99 241.414 376.837 241.414C329.337 241.414 185.175 241.414 148.802 241.414ZM82.4828 174.047C73.6236 174.077 65.2686 178.168 59.8117 185.149C52.0259 195.11 40.5197 209.826 31.9768 220.752C29.8492 223.473 29.4602 227.173 30.9745 230.278C32.4887 233.383 35.6417 235.357 39.0975 235.357C67.9654 235.357 120.394 235.357 120.394 235.357C123.265 229.3 129.37 225.429 136.075 225.429C168.228 225.429 261.868 225.429 293.195 225.429C299.624 225.429 305.588 222.093 308.945 216.612C314.906 206.875 324.434 191.309 330.32 181.695C331.374 179.971 331.415 177.811 330.424 176.052C329.433 174.29 327.568 173.202 325.545 173.209C284.669 173.351 130.075 173.882 82.4828 174.047ZM332.197 212.452C330.567 215.059 330.485 218.375 331.984 221.058C333.483 223.761 336.325 225.429 339.411 225.429C352.851 225.429 372.206 225.429 385.002 225.429C388.52 225.429 391.895 224.029 394.383 221.557C396.869 219.065 398.268 215.692 398.268 212.165C398.268 186.684 398.268 131.168 398.268 105.894C398.268 98.7136 392.447 92.8924 385.267 92.8924C343.639 92.8924 213.942 92.8924 172.586 92.8924C164.609 92.8924 157.185 96.9693 152.905 103.703C145.361 115.571 136.577 134.495 129.148 146.183C127.829 148.259 127.744 150.889 128.929 153.047C130.114 155.203 132.379 156.543 134.838 156.543C172.213 156.543 282.124 156.543 336.787 156.543C342.88 156.543 348.493 159.846 351.452 165.172C354.411 170.497 354.249 177.008 351.03 182.181C344.617 192.49 337.5 203.923 332.197 212.452ZM295.06 76.9203C296.806 76.9203 298.433 76.0386 299.388 74.5761C304.431 66.8536 320.708 41.9265 329.601 28.3082C330.78 26.5007 330.876 24.1949 329.848 22.2973C328.821 20.3998 326.837 19.2171 324.679 19.2171C285.488 19.2171 150.678 19.2171 94.5984 19.2171C88.0259 19.2171 81.7219 21.8277 77.0757 26.4758C72.4276 31.1219 69.8169 37.426 69.8169 43.9966C69.8169 68.663 69.8169 106.39 69.8169 131.631C69.8169 138.532 72.6442 145.133 77.6392 149.894C82.6323 154.657 89.36 157.166 96.2526 156.838C96.2545 156.838 99.4995 156.838 99.4995 156.838C99.5858 156.137 125.726 111.007 140.155 88.8845C145.024 81.4208 153.333 76.9203 162.244 76.9203C195.94 76.9203 278.789 76.9203 295.06 76.9203Z" fill="white"/>
</svg>
